<?xml version="1.0" encoding="UTF-8"?>
<svg width="339px" height="84px" viewBox="0 0 339 84" version="1.1" xmlns="http://www.w3.org/2000/svg" xmlns:xlink="http://www.w3.org/1999/xlink">
    <!-- Generator: Sketch 50.2 (55047) - http://www.bohemiancoding.com/sketch -->
    <title>globelabs</title>
    <desc>Created with Sketch.</desc>
    <defs>
        <path d="M21.6289974,0 L25.3476107,0 L25.3476107,20.5340277 L21.6289974,20.5340277 L21.6289974,0 Z M35.7806102,5.4802027 C31.2320687,5.4802027 28.0301525,8.5910945 28.0301525,13.011131 C28.0301525,17.439199 31.22136,20.5474136 35.7806102,20.5474136 C40.3452148,20.5474136 43.5444538,17.439199 43.5444538,13.011131 C43.5444538,8.5910945 40.3452148,5.4802027 35.7806102,5.4802027 Z M35.7806102,17.6212477 C33.4862605,17.6212477 31.8478218,15.7177675 31.8478218,13.0138082 C31.8478218,10.2884313 33.4809062,8.41172295 35.7806102,8.41172295 C38.0910229,8.41172295 39.734816,10.2884313 39.734816,13.0138082 C39.7321388,15.7177675 38.0910229,17.6212477 35.7806102,17.6212477 Z M10.0956738,12.1249819 L14.3952369,12.1249819 L14.3952369,16.8261231 C13.4153863,17.2973081 12.1651397,17.5650268 10.8961529,17.5650268 C6.73312642,17.5650268 3.84979554,14.6308294 3.84979554,10.3500067 C3.84979554,6.12540487 6.71170892,3.1349865 10.8506407,3.1349865 C12.6095529,3.1349865 14.3443703,3.74806242 16.2799768,4.7761024 L17.7229809,2.17119902 C15.2867403,0.848668419 12.8237279,0.13653656 10.4169363,0.13653656 C4.31562616,0.13653656 0.0615753112,4.36649272 0.0615753112,10.3473295 C0.0615753112,16.3308434 4.40665053,20.552768 10.6525288,20.552768 C13.2038885,20.552768 15.567845,19.9396921 18.1138502,18.8795258 L18.1138502,9.3808648 L10.0956738,9.3808648 L10.0956738,12.1249819 Z M53.7820185,20.5795399 C58.3573319,20.5795399 61.5458621,17.4418762 61.5458621,13.0138082 C61.5458621,8.5910945 58.33056,5.4587852 53.760601,5.4587852 C52.2694076,5.4587852 50.9575858,5.79343363 49.7956864,6.40650955 L49.7956864,0 L46.0743959,0 L46.0743959,13.4903475 C46.261799,17.5944759 49.3646593,20.5795399 53.7820185,20.5795399 Z M53.7713098,17.5998302 C51.4849917,17.5998302 49.8438758,15.6909956 49.8438758,12.9923907 C49.8438758,10.2670138 51.4849917,8.39030545 53.7713098,8.39030545 C56.0924313,8.39030545 57.7335472,10.2670138 57.7335472,12.9923907 C57.7362244,15.6909956 56.0924313,17.5998302 53.7713098,17.5998302 Z M70.870506,5.4802027 C66.5361395,5.4802027 63.5135949,8.5910945 63.5135949,13.011131 C63.5135949,17.439199 66.7048023,20.5474136 71.341691,20.5474136 C73.041705,20.5474136 75.0710131,20.1110321 77.0869352,19.1124412 L75.9464534,16.5610815 C74.4445512,17.3856553 73.0390278,17.7310124 71.8101988,17.7310124 C69.341832,17.7310124 67.5266989,16.2264331 67.2670117,13.8838941 L77.7294602,13.8838941 C77.7615865,13.4903475 77.7963899,13.1208957 77.7963899,12.711286 C77.7990671,8.40369138 74.9478625,5.4802027 70.870506,5.4802027 Z M67.2723661,11.7341126 C67.5026042,9.58433105 68.9402538,8.30463545 70.8785375,8.30463545 C72.7525688,8.30463545 74.069745,9.58700823 74.1902184,11.7341126 L67.2723661,11.7341126 Z" id="path-1"></path>
    </defs>
    <g id="Page-1" stroke="none" stroke-width="1" fill="none" fill-rule="evenodd">
        <g id="sponsor" transform="translate(0.000000, -37.000000)" fill-rule="nonzero">
            <g id="globelabs" transform="translate(0.000000, 37.000000)">
                <g id="Shape">
                    <use fill="#000000" fill-rule="evenodd" xlink:href="#path-1"></use>
                    <use fill-opacity="0.4" fill="#FFFFFF" fill-rule="evenodd" xlink:href="#path-1"></use>
                </g>
                <g id="Group" transform="translate(0.000000, 41.157812)" fill="#FFFFFF">
                    <path d="M119.876422,17.9973221 L140.79061,38.9168648 L140.79061,24.6956451 L119.876422,3.7761024 L98.9622338,24.6956451 L98.9622338,38.9168648 L119.876422,17.9973221 Z M10.0608704,32.3550783 L10.0608704,0.499224968 L0,0.499224968 L0,42.4105944 L41.9086922,42.4105944 L41.9086922,32.3550783 L10.0608704,32.3550783 Z M239.924184,29.2334778 C239.924184,26.0690422 238.673938,23.1776798 236.719591,20.9208108 C238.293777,18.7978011 239.270951,16.1741574 239.270951,13.3764966 C239.270951,6.26588672 232.984914,0.351979659 226.473995,0.351979659 L207.94518,0.351979659 L197.739742,0.351979659 L197.739742,42.1830335 L207.94518,42.1830335 L227.119197,42.1830335 C233.662243,42.1750019 239.924184,36.3521192 239.924184,29.2334778 Z M226.356198,10.4342676 C227.882195,10.4342676 229.167245,11.7728613 229.167245,13.3309844 C229.167245,14.8944618 227.994637,16.2223468 226.473995,16.2223468 L207.819352,16.2223468 L207.819352,10.4235588 L226.356198,10.4342676 Z M227.119197,32.3470468 L207.819352,32.3470468 L207.819352,26.293926 L227.119197,26.293926 C228.645194,26.293926 229.868668,27.6887406 229.868668,29.2468637 C229.871345,30.807664 228.647871,32.3470468 227.119197,32.3470468 Z M309.402553,10.4235588 L338.605313,10.4235588 L338.605313,0.343948096 L309.375781,0.343948096 C302.308006,0.563477467 296.801031,6.34620234 296.801031,13.3791738 C296.801031,20.4067908 302.318715,26.1332947 309.375781,26.3581785 L326.009146,26.3581785 C327.521757,26.3581785 328.493576,27.8841753 328.493576,29.3593056 C328.493576,30.8344359 327.489631,32.3390152 325.968989,32.3390152 L296.784968,32.3390152 L296.784968,42.2847666 L326.014501,42.2847666 C333.074244,42.0491741 338.58925,36.3360561 338.58925,29.308439 C338.58925,22.2727904 333.06889,16.5569952 326.014501,16.3267571 L309.38649,16.3267571 C307.876556,16.3267571 306.883319,14.8355637 306.883319,13.3631106 C306.880642,11.8986891 307.873879,10.4235588 309.402553,10.4235588 Z" id="Shape"></path>
                </g>
            </g>
        </g>
    </g>
</svg>