<?xml version="1.0" encoding="UTF-8"?>
<svg width="340px" height="61px" viewBox="0 0 340 61" version="1.1" xmlns="http://www.w3.org/2000/svg" xmlns:xlink="http://www.w3.org/1999/xlink">
    <!-- Generator: Sketch 50.2 (55047) - http://www.bohemiancoding.com/sketch -->
    <title>offscreen</title>
    <desc>Created with Sketch.</desc>
    <defs></defs>
    <g id="Page-1" stroke="none" stroke-width="1" fill="none" fill-rule="evenodd">
        <g id="sponsor" transform="translate(0.000000, -50.000000)" fill="#FFFFFF" fill-rule="nonzero">
            <g id="offscreen" transform="translate(0.000000, 50.000000)">
                <path d="M53.8904899,31.648415 C53.8904899,47.129683 44.5821326,60.4553314 26.5533141,60.4553314 C9.11239193,60.4553314 0,47.815562 0,31.8443804 C0,15.6772334 10.092219,3.3314121 27.3371758,3.3314121 C43.6023055,3.3314121 53.8904899,14.6974063 53.8904899,31.648415 Z M12.443804,31.5504323 C12.443804,42.426513 17.2449568,50.6570605 27.0432277,50.6570605 C37.7233429,50.6570605 41.5446686,41.740634 41.5446686,31.8443804 C41.5446686,21.2622478 37.2334294,13.0317003 26.8472622,13.0317003 C16.7550432,13.0317003 12.443804,20.7723343 12.443804,31.5504323 Z" id="Shape"></path>
                <path d="M58.8876081,17.9308357 L58.8876081,14.2074928 C58.8876081,5.58501441 62.7089337,0 72.4092219,0 C74.3688761,0 76.0345821,0.195965418 77.1123919,0.587896254 L77.1123919,9.50432277 C76.1325648,9.30835735 75.3487032,9.30835735 74.4668588,9.30835735 C71.3314121,9.30835735 70.4495677,11.2680115 70.4495677,14.5014409 L70.4495677,17.9308357 L83.2853026,17.9308357 L83.2853026,14.2074928 C83.2853026,5.58501441 87.204611,0 96.8069164,0 C98.7665706,0 100.432277,0.195965418 101.510086,0.587896254 L101.510086,9.50432277 C100.530259,9.30835735 99.7463977,9.30835735 98.8645533,9.30835735 C95.7291066,9.30835735 94.8472622,11.2680115 94.8472622,14.5014409 L94.8472622,17.9308357 L102.097983,17.9308357 L102.097983,26.6512968 L94.8472622,26.6512968 L94.8472622,59.6714697 L83.2853026,59.6714697 L83.2853026,26.5533141 L70.4495677,26.5533141 L70.4495677,59.573487 L58.8876081,59.573487 L58.8876081,26.5533141 L58.8876081,17.9308357 Z" id="Shape"></path>
                <path d="M114.443804,47.0317003 C115.325648,50.4610951 118.069164,52.2247839 122.380403,52.2247839 C126.691643,52.2247839 128.161383,50.6570605 128.161383,48.1095101 C128.161383,45.4639769 126.397695,44.3861671 120.420749,42.9164265 C106.801153,39.4870317 104.645533,35.3717579 104.645533,29.4927954 C104.645533,23.4178674 108.956772,16.8530259 121.498559,16.8530259 C134.138329,16.8530259 138.54755,23.8097983 138.841499,29.3948127 L127.867435,29.3948127 C127.475504,27.8270893 126.397695,24.9855908 121.008646,24.9855908 C117.18732,24.9855908 115.913545,26.6512968 115.913545,28.5129683 C115.913545,30.5706052 117.18732,31.5504323 123.948127,33.2161383 C137.861671,36.4495677 139.919308,41.1527378 139.919308,47.3256484 C139.919308,54.2824207 134.628242,60.5533141 121.988473,60.5533141 C109.25072,60.5533141 104.057637,54.4783862 103.175793,47.0317003 L114.443804,47.0317003 Z" id="Shape"></path>
                <path d="M181.855908,46.1498559 C180.48415,53.1066282 175.585014,60.5533141 163.14121,60.5533141 C150.207493,60.5533141 143.446686,51.6368876 143.446686,38.9971182 C143.446686,26.6512968 150.893372,16.8530259 163.631124,16.8530259 C177.642651,16.8530259 181.56196,27.0432277 181.757925,31.648415 L170.587896,31.648415 C169.902017,28.2190202 167.942363,25.9654179 163.435159,25.9654179 C158.144092,25.9654179 155.106628,30.5706052 155.106628,38.6051873 C155.106628,47.5216138 158.340058,51.5389049 163.337176,51.5389049 C167.354467,51.5389049 169.412104,49.1873199 170.489914,46.0518732 L181.855908,46.0518732 L181.855908,46.1498559 Z" id="Shape"></path>
                <path d="M187.146974,29.1988473 C187.146974,24.9855908 187.146974,21.3602305 187.048991,17.832853 L198.414986,17.832853 C198.610951,18.8126801 198.708934,22.9279539 198.708934,25.1815562 C200.570605,20.3804035 204.979827,16.9510086 212.132565,16.8530259 L212.132565,27.925072 C203.706052,27.7291066 198.708934,29.9827089 198.708934,41.3487032 L198.708934,59.573487 L187.146974,59.573487 L187.146974,29.1988473 Z" id="Shape"></path>
                <path d="M225.360231,41.2507205 C225.360231,46.443804 228.005764,51.5389049 233.786744,51.5389049 C238.587896,51.5389049 239.959654,49.5792507 241.135447,47.129683 L252.697406,47.129683 C251.227666,52.2247839 246.622478,60.5533141 233.590778,60.5533141 C219.775216,60.5533141 213.896254,50.3631124 213.896254,39.389049 C213.896254,26.259366 220.559078,16.9510086 234.080692,16.9510086 C248.386167,16.9510086 253.285303,27.3371758 253.285303,37.7233429 C253.285303,39.1930836 253.285303,40.074928 253.089337,41.2507205 L225.360231,41.2507205 Z M241.429395,34.1959654 C241.331412,29.3948127 239.371758,25.2795389 233.786744,25.2795389 C228.299712,25.2795389 226.04611,29.1008646 225.556196,34.1959654 L241.429395,34.1959654 Z" id="Shape"></path>
                <path d="M268.766571,41.2507205 C268.766571,46.443804 271.412104,51.5389049 277.193084,51.5389049 C281.994236,51.5389049 283.365994,49.5792507 284.541787,47.129683 L296.103746,47.129683 C294.634006,52.2247839 290.028818,60.5533141 276.997118,60.5533141 C263.181556,60.5533141 257.302594,50.3631124 257.302594,39.389049 C257.302594,26.259366 263.965418,16.9510086 277.487032,16.9510086 C291.792507,16.9510086 296.691643,27.3371758 296.691643,37.7233429 C296.691643,39.1930836 296.691643,40.074928 296.495677,41.2507205 L268.766571,41.2507205 Z M284.933718,34.1959654 C284.835735,29.3948127 282.876081,25.2795389 277.291066,25.2795389 C271.804035,25.2795389 269.550432,29.1008646 269.060519,34.1959654 L284.933718,34.1959654 Z" id="Shape"></path>
                <path d="M301.688761,28.4149856 C301.688761,24.8876081 301.688761,20.9682997 301.590778,17.832853 L312.760807,17.832853 C312.956772,19.0086455 313.152738,21.8501441 313.25072,23.1239193 C314.622478,20.5763689 318.051873,16.8530259 325.302594,16.8530259 C333.729107,16.8530259 339.118156,22.5360231 339.118156,33.0201729 L339.118156,59.573487 L327.556196,59.573487 L327.556196,34.3919308 C327.556196,29.5907781 325.988473,26.259366 320.893372,26.259366 C315.994236,26.259366 313.25072,29.0028818 313.25072,36.4495677 L313.25072,59.6714697 L301.688761,59.6714697 L301.688761,28.4149856 Z" id="Shape"></path>
            </g>
        </g>
    </g>
</svg>