<?xml version="1.0" encoding="UTF-8"?>
<svg width="341px" height="160px" viewBox="0 0 341 160" version="1.1" xmlns="http://www.w3.org/2000/svg" xmlns:xlink="http://www.w3.org/1999/xlink">
    <!-- Generator: Sketch 50.2 (55047) - http://www.bohemiancoding.com/sketch -->
    <title>packtpub</title>
    <desc>Created with Sketch.</desc>
    <defs></defs>
    <g id="Page-1" stroke="none" stroke-width="1" fill="none" fill-rule="evenodd">
        <g id="sponsor" fill="#EC670F" fill-rule="nonzero">
            <g id="packtpub" transform="translate(63.000000, 45.000000)">
                <path d="M8.97740113,57.5028249 L0,57.5028249 L0,1.77966102 L21.5932203,1.77966102 C34.4463277,1.77966102 41.3276836,8.26553672 41.3276836,18.7062147 C41.3276836,29.1468927 34.4463277,35.6327684 21.5932203,35.6327684 L8.97740113,35.6327684 L8.97740113,57.5028249 Z M8.97740113,27.1299435 L21.3559322,27.1299435 C28.6723164,27.1299435 31.9943503,24.480226 31.9943503,18.7062147 C31.9943503,12.9322034 28.7118644,10.2429379 21.3559322,10.2429379 L8.97740113,10.2429379 L8.97740113,27.1299435 Z" id="Shape"></path>
                <path d="M72.8079096,57.5028249 L72.8079096,52.9152542 C70.1581921,56.3163842 66.2824859,58.4915254 60.8248588,58.4915254 C50.1468927,58.4915254 41.7627119,50.1073446 41.7627119,38.440678 C41.7627119,26.7740113 50.1468927,18.3898305 60.8248588,18.3898305 C66.2824859,18.3898305 70.1186441,20.6045198 72.8079096,24.0056497 L72.8079096,19.3785311 L81.1129944,19.3785311 L81.1129944,57.5028249 L72.8079096,57.5028249 Z M50.3050847,38.440678 C50.3050847,45.1242938 54.6553672,50.6610169 61.8135593,50.6610169 C68.6553672,50.6610169 73.3220339,45.4011299 73.3220339,38.440678 C73.3220339,31.480226 68.6553672,26.220339 61.8135593,26.220339 C54.6553672,26.220339 50.3050847,31.7570621 50.3050847,38.440678 Z" id="Shape"></path>
                <path d="M119.751412,24.440678 L114.412429,30.1355932 C111.723164,27.6045198 108.915254,26.180791 105.276836,26.180791 C98.8700565,26.180791 94.0056497,31.2033898 94.0056497,38.4011299 C94.0056497,45.5988701 98.8700565,50.6214689 105.276836,50.6214689 C108.954802,50.6214689 112.19774,48.920904 114.610169,46.6271186 L119.751412,52.3615819 C116.231638,56.3954802 111.248588,58.4519774 105.514124,58.4519774 C93.4124294,58.4519774 85.4632768,49.8305085 85.4632768,38.4011299 C85.4632768,26.9717514 93.4124294,18.3502825 105.514124,18.3502825 C111.248588,18.3502825 116.389831,20.4463277 119.751412,24.440678 Z" id="Shape"></path>
                <polyline id="Shape" points="131.457627 41.4067797 131.457627 57.5028249 123.112994 57.5028249 123.112994 0.197740113 131.457627 0 131.457627 33.6553672"></polyline>
                <polygon id="Shape" points="169.265537 57.5028249 169.265537 26.9322034 161.672316 26.9322034 161.672316 19.3785311 169.265537 19.3785311 169.265537 7.83050847 177.610169 7.83050847 177.610169 19.3785311 185.242938 19.3785311 185.242938 26.9322034 177.610169 26.9322034 177.610169 57.5028249"></polygon>
                <polygon id="Shape" points="133.039548 37.3333333 136.124294 33.8531073 148.700565 19.3785311 159.180791 19.3785311 143.20339 37.2937853 159.338983 57.5028249 148.779661 57.5028249 136.084746 41.4067797"></polygon>
                <polygon id="Shape" points="210.988701 41.4067797 198.293785 57.5028249 187.734463 57.5028249 203.870056 37.2937853 187.892655 19.3785311 198.372881 19.3785311 210.949153 33.8531073 214.033898 37.3333333"></polygon>
                <polygon id="Shape" points="214.033898 69.6836158 0 69.6836158 0 64.1468927 214.033898 64.1468927"></polygon>
            </g>
        </g>
    </g>
</svg>