<?xml version="1.0" encoding="UTF-8"?>
<svg width="340px" height="90px" viewBox="0 0 340 90" version="1.1" xmlns="http://www.w3.org/2000/svg" xmlns:xlink="http://www.w3.org/1999/xlink">
    <!-- Generator: Sketch 50.2 (55047) - http://www.bohemiancoding.com/sketch -->
    <title>protoio</title>
    <desc>Created with Sketch.</desc>
    <defs></defs>
    <g id="Page-1" stroke="none" stroke-width="1" fill="none" fill-rule="evenodd">
        <g id="sponsor" transform="translate(0.000000, -35.000000)">
            <g id="protoio" transform="translate(0.000000, 35.000000)">
                <path d="M165.981587,0.100664045 L151.632647,6.25027845 L151.632647,45.6559377 L151.654218,45.6559377 C152.060709,60.5820187 164.280365,72.5596018 179.305192,72.5596018 L179.305192,58.2106613 C171.946172,58.2106613 165.981587,52.2451183 165.981587,44.8870561 L165.981587,31.3453453 L179.305192,31.3453453 L179.305192,17.0107854 L165.981587,17.0107854 L165.981587,0.100664045" id="Fill-1" fill="#FFFFFF" fill-rule="nonzero"></path>
                <path d="M118.389544,58.0064571 C111.030524,58.0064571 105.065939,52.0409141 105.065939,44.6828519 C105.065939,37.3252689 111.030524,31.3592465 118.389544,31.3592465 C125.746648,31.3592465 131.71315,37.3252689 131.71315,44.6828519 C131.71315,52.0409141 125.746648,58.0064571 118.389544,58.0064571 M118.389544,17.0107854 C103.104428,17.0107854 90.7165194,29.4001325 90.7165194,44.6828519 C90.7165194,59.9660505 103.104428,72.3553976 118.389544,72.3553976 C133.670826,72.3553976 146.060173,59.9660505 146.060173,44.6828519 C146.060173,29.4001325 133.670826,17.0107854 118.389544,17.0107854" id="Fill-2" fill="#FFFFFF" fill-rule="nonzero"></path>
                <g id="Group-6" transform="translate(0.000000, 16.916353)"></g>
                <path d="M210.436746,58.0064573 C203.077725,58.0064573 197.113142,52.0409143 197.113142,44.6828519 C197.113142,37.3252689 203.077725,31.3592466 210.436746,31.3592466 C217.794809,31.3592466 223.759393,37.3252689 223.759393,44.6828519 C223.759393,52.0409143 217.794809,58.0064573 210.436746,58.0064573 M210.436746,17.0107855 C195.152589,17.0107855 182.763243,29.4001326 182.763243,44.6828519 C182.763243,59.9660507 195.152589,72.3553976 210.436746,72.3553976 C225.718987,72.3553976 238.108334,59.9660507 238.108334,44.6828519 C238.108334,29.4001326 225.718987,17.0107855 210.436746,17.0107855" id="Fill-3" fill="#FFFFFF" fill-rule="nonzero"></path>
                <path d="M27.6720665,58.0064573 C20.3140042,58.0064573 14.3484611,52.0409143 14.3484611,44.6828519 C14.3484611,37.3252689 20.3140042,31.3592466 27.6720665,31.3592466 C35.0296493,31.3592466 40.9956717,37.3252689 40.9956717,44.6828519 C40.9956717,52.0409143 35.0296493,58.0064573 27.6720665,58.0064573 M27.6720665,17.0107855 C12.3893471,17.0107855 0,29.4001326 0,44.6828519 C0,45.0490773 0.0143805778,45.4105091 0.0282818029,45.7728997 L0,45.7728997 L0,83.6278533 L14.3484611,89.777947 L14.3484611,68.938093 C18.3007233,71.1138745 22.8406716,72.3553976 27.6720665,72.3553976 C42.9547857,72.3553976 55.3431741,59.9660507 55.3431741,44.6828519 C55.3431741,29.4001326 42.9547857,17.0107855 27.6720665,17.0107855" id="Fill-5" fill="#FFFFFF" fill-rule="nonzero"></path>
                <path d="M60.9506408,43.9144497 L60.9319461,43.9144497 L60.9319461,72.5596018 L75.2794485,72.5596018 L75.2794485,44.6828519 C75.2794485,37.3252689 81.2445121,31.3592465 88.6030537,31.3592465 L88.6030537,17.0107854 C73.5787055,17.0107854 61.3585698,28.9878893 60.9506408,43.9144497" id="Fill-7" fill="#FFFFFF" fill-rule="nonzero"></path>
                <path d="M312.268494,58.0064571 C304.911391,58.0064571 298.946327,52.0409141 298.946327,44.6828519 C298.946327,37.3252689 304.911391,31.3592465 312.268494,31.3592465 C319.627035,31.3592465 325.59162,37.3252689 325.59162,44.6828519 C325.59162,52.0409141 319.627035,58.0064571 312.268494,58.0064571 M312.268494,17.0107854 C296.987213,17.0107854 284.595948,29.4001325 284.595948,44.6828519 C284.595948,59.9660505 296.987213,72.3553976 312.268494,72.3553976 C327.551213,72.3553976 339.941519,59.9660505 339.941519,44.6828519 C339.941519,29.4001325 327.551213,17.0107854 312.268494,17.0107854" id="Fill-8" fill="#FFFFFF" fill-rule="nonzero"></path>
                <polygon id="Fill-9" fill="#FFFFFF" fill-rule="nonzero" points="265.01008 72.3544389 279.359501 72.3544389 279.359501 17.0107854 265.01008 17.0107854"></polygon>
                <path d="M249.714419,53.7522028 C244.578634,53.7522028 240.41402,57.917777 240.41402,63.0549986 C240.41402,68.1907824 244.578634,72.3553976 249.714419,72.3553976 C254.851641,72.3553976 259.016256,68.1907824 259.016256,63.0549986 C259.016256,57.917777 254.851641,53.7522028 249.714419,53.7522028" id="Fill-10" fill="#FFFFFF" fill-rule="nonzero"></path>
            </g>
        </g>
    </g>
</svg>