<?xml version="1.0" encoding="UTF-8"?>
<svg width="340px" height="89px" viewBox="0 0 340 89" version="1.1" xmlns="http://www.w3.org/2000/svg" xmlns:xlink="http://www.w3.org/1999/xlink">
    <!-- Generator: Sketch 50.2 (55047) - http://www.bohemiancoding.com/sketch -->
    <title>rosenfeldmedia</title>
    <desc>Created with Sketch.</desc>
    <defs></defs>
    <g id="Page-1" stroke="none" stroke-width="1" fill="none" fill-rule="evenodd">
        <g id="sponsor" transform="translate(0.000000, -36.000000)" fill-rule="nonzero">
            <g id="rosenfeldmedia" transform="translate(0.000000, 36.000000)">
                <path d="M88.1166667,44.4125 C88.1166667,68.6375 68.425,88.3291667 44.2,88.3291667 C19.975,88.3291667 0.283333333,68.6375 0.283333333,44.4125 C0.283333333,20.1875 19.975,0.495833333 44.2,0.495833333 C68.425,0.495833333 88.1166667,20.1875 88.1166667,44.4125 Z" id="Shape" fill="#FFFFFF"></path>
                <path d="M64.6708333,23.5166667 L31.875,23.5166667 C21.7458333,23.5166667 16.2916667,32.0875 13.8833333,38.7458333 C11.1208333,46.325 10.7666667,59.9958333 10.7666667,62.9708333 L10.7666667,64.5291667 C10.7666667,64.9541667 11.1916667,65.3083333 11.5458333,65.3083333 L17.5666667,65.3083333 C17.9916667,65.3083333 18.3458333,64.8833333 18.3458333,64.5291667 C18.3458333,64.3166667 18.3458333,62.9708333 18.3458333,62.9708333 C18.3458333,60.9875 18.1333333,59.2875 19.125,56.525 C20.6833333,51.85 23.2333333,49.0875 28.1208333,48.9458333 L32.2291667,48.9458333 L32.2291667,64.5291667 C32.2291667,64.9541667 32.6541667,65.3083333 33.0083333,65.3083333 L39.8083333,65.3083333 C40.2333333,65.3083333 40.5875,64.8833333 40.5875,64.5291667 C40.5875,64.3166667 40.5875,57.7291667 40.5875,57.7291667 C40.5875,56.95 40.5875,56.3833333 41.0125,55.7458333 C41.5791667,53.7625 43.1375,51.6375 45.6875,51.6375 C48.8041667,51.6375 50.0083333,54.1875 50.0083333,57.6583333 L50.0083333,64.4583333 C50.0083333,64.8833333 50.4333333,65.2375 50.7875,65.2375 L58.0833333,65.2375 C58.5083333,65.2375 58.8625,64.8125 58.8625,64.4583333 L58.8625,57.2333333 C58.8625,56.4541667 59.075,55.8875 59.2875,55.25 C60.0666667,53.2666667 61.2708333,51.5666667 63.6083333,51.5666667 C66.9375,51.5666667 68.0708333,54.1166667 68.0708333,58.3666667 L68.0708333,64.3875 C68.0708333,64.8125 68.4958333,65.1666667 68.85,65.1666667 L76.4291667,65.1666667 C76.8541667,65.1666667 77.2083333,64.7416667 77.2083333,64.3875 L77.2083333,34.1416667 C76.4291667,28.4041667 70.55,23.5166667 64.6708333,23.5166667 Z M32.5125,39.95 L30.7416667,39.95 C28.7583333,39.95 27.625,38.9583333 27.625,37.4 C27.625,35.6291667 28.9708333,34.85 30.7416667,34.85 C31.5208333,34.85 32.3,34.85 32.5125,35.0625 L32.5125,39.95 Z" id="Shape" fill="#000000"></path>
                <g id="Group" transform="translate(102.000000, 19.833333)" fill="#FFFFFF">
                    <path d="M0.2125,3.89583333 C3.11666667,3.32916667 7.225,2.90416667 11.5458333,2.90416667 C17.425,2.90416667 21.5333333,3.89583333 24.225,6.23333333 C26.5625,8.21666667 27.7666667,10.9083333 27.7666667,14.6625 C27.7666667,19.9041667 24.225,23.6583333 20.1875,25.0041667 L20.1875,25.2166667 C23.0916667,26.4208333 24.8625,29.1125 25.8541667,33.2208333 C27.2,38.3208333 28.4041667,43.2083333 29.1833333,44.7666667 L21.6041667,44.7666667 C21.0375,43.5625 20.0458333,40.3041667 18.8416667,34.9916667 C17.6375,29.5375 15.725,27.9791667 11.4041667,27.7666667 L7.72083333,27.7666667 L7.72083333,44.7666667 L0.283333333,44.7666667 L0.2125,3.89583333 Z M7.79166667,22.0291667 L12.2541667,22.0291667 C17.3541667,22.0291667 20.4708333,19.2666667 20.4708333,15.2291667 C20.4708333,10.7666667 17.3541667,8.57083333 12.4666667,8.57083333 C10.1291667,8.57083333 8.57083333,8.78333333 7.79166667,8.99583333 L7.79166667,22.0291667 Z" id="Shape"></path>
                    <path d="M44.6958333,45.2625 C36.2666667,45.2625 29.8916667,39.5958333 29.8916667,29.8208333 C29.8916667,20.0458333 36.3375,14.025 45.3333333,14.025 C54.1166667,14.025 60.1375,20.2583333 60.1375,29.2541667 C59.925,40.1625 52.275,45.2625 44.6958333,45.2625 Z M44.9083333,39.8083333 C49.2291667,39.8083333 52.1333333,35.7 52.1333333,29.6791667 C52.1333333,25.0041667 50.0083333,19.6916667 44.9083333,19.6916667 C39.6666667,19.6916667 37.4708333,24.9333333 37.4708333,29.8208333 C37.4708333,35.3458333 40.375,39.8083333 44.9083333,39.8083333 Z" id="Shape"></path>
                    <path d="M63.3958333,37.4708333 C64.9541667,38.4625 68.2833333,39.5958333 70.975,39.5958333 C74.3041667,39.5958333 75.65,38.25 75.65,36.2666667 C75.65,34.2833333 74.4458333,33.3625 70.7625,31.9458333 C64.8833333,29.9625 62.5458333,26.8458333 62.5458333,23.375 C62.5458333,18.1333333 66.8666667,14.025 73.8791667,14.025 C77.2083333,14.025 80.1125,14.8041667 81.8833333,15.7958333 L80.325,21.0375 C79.1208333,20.2583333 76.6416667,19.2666667 74.0916667,19.2666667 C71.3291667,19.2666667 69.9833333,20.6125 69.9833333,22.3833333 C69.9833333,24.3666667 71.3291667,25.1458333 75.225,26.4916667 C80.6791667,28.475 83.0166667,31.1666667 83.2291667,35.4875 C83.2291667,40.9416667 78.9083333,44.8375 71.1166667,44.8375 C67.575,44.8375 64.3166667,44.0583333 62.1208333,42.7125 L63.3958333,37.4708333 Z" id="Shape"></path>
                    <path d="M92.7208333,31.8041667 C92.9333333,37.2583333 97.1833333,39.3833333 101.929167,39.3833333 C105.470833,39.3833333 107.808333,38.8166667 110.145833,38.0375 L111.35,43.1375 C108.8,44.3416667 105.329167,45.1208333 101.008333,45.1208333 C91.4458333,45.1208333 85.5666667,39.2416667 85.5666667,30.1041667 C85.5666667,21.8875 90.6666667,14.0958333 100.229167,14.0958333 C109.791667,14.0958333 113.120833,22.1 113.120833,28.5458333 C113.120833,29.8916667 112.908333,31.0958333 112.908333,31.6625 L92.7916667,31.6625 L92.7916667,31.8041667 L92.7208333,31.8041667 Z M105.754167,26.5625 C105.754167,23.8 104.55,19.3375 99.5208333,19.3375 C94.8458333,19.3375 92.8625,23.6583333 92.7208333,26.5625 L105.754167,26.5625 Z" id="Shape"></path>
                    <path d="M116.520833,23.5875 C116.520833,20.0458333 116.308333,17.3541667 116.308333,14.8041667 L122.966667,14.8041667 L123.391667,19.2666667 L123.604167,19.2666667 C124.95,16.9291667 128.066667,14.1666667 133.166667,14.1666667 C138.408333,14.1666667 143.720833,17.4958333 143.720833,26.8458333 L143.720833,44.625 L136.141667,44.625 L136.141667,27.8375 C136.141667,23.5166667 134.583333,20.2583333 130.475,20.2583333 C127.570833,20.2583333 125.375,22.3833333 124.595833,24.7208333 C124.383333,25.2875 124.170833,26.2791667 124.170833,27.0583333 L124.170833,44.625 L116.591667,44.625 L116.591667,23.5875 L116.520833,23.5875 Z" id="Shape"></path>
                    <path d="M150.520833,44.4833333 L150.520833,20.2583333 L146.4125,20.2583333 L146.4125,14.8041667 L150.520833,14.8041667 L150.520833,13.4583333 C150.520833,9.5625 151.5125,5.87916667 154.0625,3.32916667 C156.1875,1.20416667 159.304167,0.425 161.854167,0.425 C163.8375,0.425 165.395833,0.85 166.529167,1.20416667 L166.104167,7.08333333 C165.325,6.65833333 164.333333,6.51666667 162.775,6.51666667 C159.091667,6.51666667 157.8875,9.63333333 157.8875,13.3166667 L157.8875,14.875 L164.545833,14.875 L164.545833,20.5416667 L158.1,20.5416667 L158.1,44.7666667 L150.520833,44.7666667 L150.520833,44.4833333 Z" id="Shape"></path>
                    <path d="M173.116667,31.8041667 C173.329167,37.2583333 177.579167,39.3833333 182.325,39.3833333 C185.866667,39.3833333 188.204167,38.8166667 190.541667,38.0375 L191.745833,43.1375 C189.195833,44.3416667 185.725,45.1208333 181.404167,45.1208333 C171.841667,45.1208333 165.9625,39.2416667 165.9625,30.1041667 C165.9625,21.8875 171.0625,14.0958333 180.625,14.0958333 C190.1875,14.0958333 193.516667,22.1 193.516667,28.5458333 C193.516667,29.8916667 193.304167,31.0958333 193.304167,31.6625 L173.1875,31.6625 L173.1875,31.8041667 L173.116667,31.8041667 Z M186.220833,26.5625 C186.220833,23.8 185.016667,19.3375 179.9875,19.3375 C175.3125,19.3375 173.329167,23.6583333 173.1875,26.5625 L186.220833,26.5625 Z" id="Shape"></path>
                    <polygon id="Shape" points="196.9875 0.991666667 204.566667 0.991666667 204.566667 44.5541667 196.9875 44.5541667"></polygon>
                    <path d="M237.716667,0.991666667 L237.716667,36.125 C237.716667,39.2416667 237.929167,42.5708333 237.929167,44.5541667 L231.270833,44.5541667 L230.845833,39.8791667 L230.633333,39.8791667 C228.8625,43.2083333 225.179167,45.3333333 221.070833,45.3333333 C213.845833,45.3333333 208.391667,39.3125 208.391667,30.1041667 C208.391667,20.1166667 214.625,14.3083333 221.6375,14.3083333 C225.745833,14.3083333 228.65,15.8666667 230.066667,18.2041667 L230.279167,18.2041667 L230.279167,1.41666667 L237.716667,1.41666667 L237.716667,0.991666667 Z M230.1375,27.1291667 C230.1375,26.5625 230.1375,25.7833333 229.925,25.1458333 C229.358333,22.2416667 226.808333,19.9041667 223.479167,19.9041667 C218.591667,19.9041667 215.9,24.225 215.9,29.6791667 C215.9,35.1333333 218.6625,39.2416667 223.3375,39.2416667 C226.454167,39.2416667 229.004167,37.1166667 229.783333,34 C229.995833,33.4333333 229.995833,32.6541667 229.995833,31.875 L229.995833,27.2 L230.1375,27.2 L230.1375,27.1291667 Z" id="Shape"></path>
                </g>
            </g>
        </g>
    </g>
</svg>