<?xml version="1.0" encoding="UTF-8"?>
<svg width="340px" height="78px" viewBox="0 0 340 78" version="1.1" xmlns="http://www.w3.org/2000/svg" xmlns:xlink="http://www.w3.org/1999/xlink">
    <!-- Generator: Sketch 50.2 (55047) - http://www.bohemiancoding.com/sketch -->
    <title>sketch</title>
    <desc>Created with Sketch.</desc>
    <defs></defs>
    <g id="Page-1" stroke="none" stroke-width="1" fill="none" fill-rule="evenodd">
        <g id="sponsor" transform="translate(0.000000, -41.000000)" fill-rule="nonzero">
            <g id="sketch" transform="translate(0.000000, 41.000000)">
                <path d="M115.302268,51.1454569 L115.23692,50.2714286 L114.360452,50.2714286 L108.920452,50.2714286 L107.936508,50.2714286 L107.9768,51.2545473 C108.4257,62.2077357 115.810055,69.4625397 128.942674,69.4625397 C141.468012,69.4625397 149.984896,62.9550011 149.984896,53.1047619 C149.984896,47.778502 148.137041,44.0092906 144.615882,41.4351723 C141.90729,39.4550764 138.668697,38.3389642 133.298358,37.1745425 C132.939538,37.0967412 132.565531,37.0171062 132.117347,36.9227959 C131.851209,36.8667932 130.896309,36.6669027 130.946986,36.677527 C121.194087,34.6328792 118.100452,32.8567039 118.100452,27.5669841 C118.100452,22.0970242 122.573637,18.6136508 130.076007,18.6136508 C137.375235,18.6136508 141.988293,23.0716475 142.203117,30.0892155 L142.231143,31.0047619 L143.147118,31.0047619 L148.511563,31.0047619 L149.478054,31.0047619 L149.455756,30.0385284 C149.203324,19.0998287 141.863899,11.7380952 130.000452,11.7380952 C118.373254,11.7380952 110.696007,18.7344849 110.696007,27.7936508 C110.696007,33.1048521 112.541905,36.803538 116.068618,39.2747497 C118.755289,41.1573341 121.867649,42.1553594 127.357984,43.2638594 C127.615114,43.3157741 127.883389,43.369365 128.202774,43.4327229 C128.400472,43.4719412 128.623754,43.5160927 129.042789,43.5989322 C134.237574,44.6267519 136.529679,45.2611404 138.620735,46.4770798 C141.216574,47.986547 142.504896,50.1426833 142.504896,53.4825397 C142.504896,59.2812503 137.629401,62.5869841 129.093785,62.5869841 C120.922391,62.5869841 115.851314,58.4889552 115.302268,51.1454569 Z M165.284896,10.7936508 L165.284896,9.84920635 L164.340452,9.84920635 L158.976007,9.84920635 L158.031563,9.84920635 L158.031563,10.7936508 L158.031563,67.4603175 L158.031563,68.4047619 L158.976007,68.4047619 L164.340452,68.4047619 L165.284896,68.4047619 L165.284896,67.4603175 L165.284896,57.3566282 L172.919982,49.9207189 L186.554869,68.0284259 L186.838245,68.4047619 L187.309341,68.4047619 L193.95823,68.4047619 L195.861037,68.4047619 L194.710452,66.8892328 L178.058774,44.9559671 L193.415576,29.6719472 L195.037112,28.0580952 L192.749341,28.0580952 L185.571563,28.0580952 L185.178398,28.0580952 L184.901376,28.337089 L165.284896,48.0931877 L165.284896,10.7936508 Z M233.05823,50.7247619 L233.945489,50.7247619 L234.000835,49.8392303 C234.01057,49.6834825 234.025005,49.4260347 234.039432,49.1158644 C234.050851,48.870343 234.06027,48.6310944 234.067001,48.4048962 C234.074297,48.1597716 234.07823,47.9367935 234.07823,47.7403175 C234.07823,35.8859236 226.226476,27.1514286 214.622674,27.1514286 C203.040673,27.1514286 194.789341,36.4490388 194.789341,48.1936508 C194.789341,60.279062 202.666673,69.3114286 214.69823,69.3114286 C223.795642,69.3114286 230.823824,63.9136081 233.356062,55.7260389 L233.734464,54.5025397 L232.453785,54.5025397 L226.862674,54.5025397 L226.19566,54.5025397 L225.972603,55.1311526 C224.382454,59.6124836 220.077255,62.5869841 214.773785,62.5869841 C207.840301,62.5869841 203.006978,57.825445 202.136277,50.7247619 L233.05823,50.7247619 Z M202.356058,44.4536508 C203.580349,38.0958645 208.256238,33.875873 214.622674,33.875873 C221.184472,33.875873 225.712907,37.957385 226.703424,44.4536508 L202.356058,44.4536508 Z M257.87823,34.4803175 L258.822674,34.4803175 L258.822674,33.535873 L258.822674,29.0025397 L258.822674,28.0580952 L257.87823,28.0580952 L249.982674,28.0580952 L249.982674,18.0469841 L249.982674,17.1025397 L249.03823,17.1025397 L243.673785,17.1025397 L242.729341,17.1025397 L242.729341,18.0469841 L242.729341,28.0580952 L236.344896,28.0580952 L235.400452,28.0580952 L235.400452,29.0025397 L235.400452,33.535873 L235.400452,34.4803175 L236.344896,34.4803175 L242.729341,34.4803175 L242.729341,57.1092063 C242.729341,64.5325328 246.579634,68.555873 253.647118,68.555873 C254.880687,68.555873 255.944096,68.4820251 256.837044,68.3580046 C257.388804,68.2813712 257.769829,68.2019911 257.979893,68.1436399 L258.671563,67.9515094 L258.671563,67.2336508 L258.671563,62.3980952 L258.671563,61.2262777 L257.526491,61.4752064 C257.480722,61.4851561 257.388005,61.5040228 257.255568,61.5288548 C257.031163,61.5709309 256.781204,61.6131536 256.51304,61.6525894 C255.826294,61.7535815 255.14515,61.8183101 254.518052,61.8296706 C254.453547,61.8308391 254.389889,61.8314286 254.327118,61.8314286 C251.231102,61.8314286 249.982674,60.3772158 249.982674,56.7314286 L249.982674,34.4803175 L257.87823,34.4803175 Z M280.431563,69.3114286 C290.471286,69.3114286 297.560023,62.9583155 299.34024,53.9682183 L299.563587,52.8403175 L298.413785,52.8403175 L292.973785,52.8403175 L292.247597,52.8403175 L292.061039,53.542133 C290.53599,59.2792234 286.396669,62.5869841 280.431563,62.5869841 C272.987297,62.5869841 267.851563,56.7146509 267.851563,48.2692063 C267.851563,39.7584323 272.978377,33.875873 280.431563,33.875873 C286.396669,33.875873 290.53599,37.1836337 292.061039,42.9207241 L292.247597,43.6225397 L292.973785,43.6225397 L298.413785,43.6225397 L299.563587,43.6225397 L299.34024,42.4946388 C297.560023,33.5045417 290.471286,27.1514286 280.431563,27.1514286 C268.769051,27.1514286 260.522674,36.5147505 260.522674,48.2692063 C260.522674,59.9590117 268.780406,69.3114286 280.431563,69.3114286 Z M312.920452,10.7936508 L312.920452,9.84920635 L311.976007,9.84920635 L306.611563,9.84920635 L305.667118,9.84920635 L305.667118,10.7936508 L305.667118,67.4603175 L305.667118,68.4047619 L306.611563,68.4047619 L311.976007,68.4047619 L312.920452,68.4047619 L312.920452,67.4603175 L312.920452,44.7180952 C312.920452,37.7889783 317.138035,33.7247619 323.536007,33.7247619 C329.646697,33.7247619 332.716007,37.2622725 332.716007,43.9625397 L332.716007,67.4603175 L332.716007,68.4047619 L333.660452,68.4047619 L339.024896,68.4047619 L339.969341,68.4047619 L339.969341,67.4603175 L339.969341,42.9047619 C339.969341,33.4402067 334.108831,27.1514286 324.442674,27.1514286 C319.469752,27.1514286 315.472486,28.973353 312.920452,31.5882773 L312.920452,10.7936508 Z" id="Shape" fill="#FFFFFF"></path>
                <polygon id="Shape" fill="#FDB300" points="18.8018433 2.54682776 43.0875576 0 67.3732719 2.54682776 86.1751152 27.5834396 43.0875576 77.3544974 0 27.5834396"></polygon>
                <g id="Group" transform="translate(0.000000, 27.583440)">
                    <polygon id="Shape" fill="#EA6C00" points="17.4524339 0 43.0873545 49.7713228 0 0"></polygon>
                    <polygon id="Shape" fill="#EA6C00" transform="translate(64.631642, 24.885661) scale(-1, 1) translate(-64.631642, -24.885661) " points="60.5403982 0 86.1753188 49.7713228 43.0879643 0"></polygon>
                    <polygon id="Shape" fill="#FDAD00" points="17.4524339 0 68.7222751 0 43.0873545 49.7713228"></polygon>
                </g>
                <polygon id="Shape" fill="#FDD231" points="43.0873545 0 18.8016402 2.54640212 17.4524339 27.5831746"></polygon>
                <polygon id="Shape" fill="#FDD231" transform="translate(55.905221, 13.791587) scale(-1, 1) translate(-55.905221, -13.791587) " points="68.7226817 0 44.4369674 2.54640212 43.0877611 27.5831746"></polygon>
                <polygon id="Shape" fill="#FDAD00" transform="translate(76.774499, 15.064788) scale(-1, 1) translate(-76.774499, -15.064788) " points="67.3736786 27.5831746 86.1753188 2.54640212 84.8261125 27.5831746"></polygon>
                <polygon id="Shape" fill="#FDAD00" points="0 27.5831746 18.8016402 2.54640212 17.4524339 27.5831746"></polygon>
                <polygon id="Shape" fill="#FEEEB7" points="43.0873545 0 17.4524339 27.5831746 68.7222751 27.5831746"></polygon>
            </g>
        </g>
    </g>
</svg>