<?xml version="1.0" encoding="UTF-8"?>
<svg width="340px" height="48px" viewBox="0 0 340 48" version="1.1" xmlns="http://www.w3.org/2000/svg" xmlns:xlink="http://www.w3.org/1999/xlink">
    <!-- Generator: Sketch 50.2 (55047) - http://www.bohemiancoding.com/sketch -->
    <title>webconfasia</title>
    <desc>Created with Sketch.</desc>
    <defs></defs>
    <g id="Page-1" stroke="none" stroke-width="1" fill="none" fill-rule="evenodd">
        <g id="sponsor" transform="translate(0.000000, -56.000000)" fill-rule="nonzero">
            <g id="webconfasia" transform="translate(0.000000, 56.000000)">
                <polygon id="Shape" fill="#FFFFFF" points="0.425 0.854857143 339.15 0.854857143 339.15 47.1803429 0.425 47.1803429"></polygon>
                <path d="M0,0 L0,47.6398286 L340,47.6398286 L340,0 L0,0 Z M42.3572,38.1120571 L35.8311429,38.1120571 L29.7854571,19.1293714 L23.6994571,38.1120571 L17.0548857,38.1120571 L9.32717143,9.52777143 L16.0543143,9.52777143 L20.7375714,27.8634857 L26.6229714,9.52777143 L33.1087143,9.52777143 L38.9941143,27.9042857 L43.5977143,9.52777143 L50.0834571,9.52777143 L42.3572,38.1120571 Z M71.7778857,38.1120571 L54.7778857,38.1120571 L54.7778857,9.52777143 L71.7778857,9.52777143 L71.7778857,15.2446286 L60.4442286,15.2446286 L60.4442286,20.9614857 L71.7778857,20.9614857 L71.7778857,26.6783429 L60.4442286,26.6783429 L60.4442286,32.3952 L71.7778857,32.3952 L71.7778857,38.1120571 Z M90.3734571,38.1120571 L79.3331714,38.1120571 L79.3331714,9.52777143 L89.5331714,9.52777143 C95.1383143,9.52777143 98.3809429,12.7738 98.3809429,17.1758286 C98.3809429,20.1241143 96.5386286,22.5342286 94.2159429,23.3021429 C96.7780857,23.9078286 99.2610571,26.2844286 99.2610571,30.0001429 C99.2610571,34.6848571 95.7381714,38.1115714 90.3724857,38.1115714 L90.3734571,38.1120571 Z M117.724029,38.7182286 C109.556743,38.7182286 102.991343,32.7798857 102.991343,23.8553714 C102.991343,14.9289143 109.717514,8.87108571 117.643886,8.87108571 C126.171086,8.87108571 129.9344,14.4043429 130.855314,18.5232 L124.890743,20.4213714 C124.448743,18.4425714 122.6482,15.0896857 117.643886,15.0896857 C113.840743,15.0896857 109.556743,17.8364 109.556743,23.8548857 C109.556743,29.2268857 113.480343,32.3354571 117.724029,32.3354571 C122.6482,32.3354571 124.61,29.0243429 125.170029,26.9644286 L131.215714,28.7003714 C130.2948,32.6589429 126.530514,38.7177429 117.723543,38.7177429 L117.724029,38.7182286 Z M149.438743,38.7182286 C141.431257,38.7182286 134.666229,32.8619714 134.666229,23.8140857 C134.666229,14.7263714 141.431257,8.87011429 149.438743,8.87011429 C157.404457,8.87011429 164.170457,14.7263714 164.170457,23.8136 C164.170457,32.861 157.404457,38.7172571 149.438743,38.7172571 L149.438743,38.7182286 Z M194.555771,38.1120571 L187.679029,38.1120571 L175.667314,19.2906286 L175.667314,38.1120571 L170,38.1120571 L170,9.52777143 L177.389657,9.52777143 L188.889429,26.8842857 L188.889429,9.52728571 L194.555771,9.52728571 L194.555771,38.1115714 L194.555771,38.1120571 Z M219.111057,15.2446286 L207.778857,15.2446286 L207.778857,20.9614857 L219.112029,20.9614857 L219.112029,26.6783429 L207.778857,26.6783429 L207.778857,38.1120571 L202.110571,38.1120571 L202.110571,9.52777143 L219.110571,9.52777143 L219.110571,15.2446286 L219.111057,15.2446286 Z M224.324714,38.4744 C222.081686,38.4744 220.239857,36.5364 220.239857,34.3152286 C220.239857,32.0537429 222.081686,30.1944286 224.324714,30.1944286 C226.5658,30.1944286 228.447457,32.0537429 228.447457,34.3147429 C228.447457,36.5359143 226.5658,38.4734286 224.324714,38.4734286 L224.324714,38.4744 Z M253.992143,38.1120571 L251.949229,32.3952 L240.9818,32.3952 L238.939371,38.1120571 L232.292857,38.1120571 L242.981971,9.52777143 L250.306543,9.52777143 L260.876657,38.1120571 L253.990686,38.1120571 L253.992143,38.1120571 Z M274.896314,38.7182286 C267.0496,38.7182286 263.686029,33.5876286 263.286286,29.5494 L269.090571,28.1359714 C269.331,30.7607714 271.091714,33.0630571 274.977429,33.0630571 C277.457971,33.0630571 278.979714,31.8521714 278.979714,30.0749429 C278.979714,28.6212 277.818857,27.5706 275.936229,27.2072857 L272.053429,26.4806571 C267.249714,25.5519714 264.328143,22.3205143 264.328143,18.0792571 C264.328143,12.6684 269.0522,8.87205714 274.4956,8.87205714 C281.582171,8.87205714 284.264771,13.1531429 284.864143,16.5055429 L279.178857,18.1210286 C278.979714,16.7887143 277.899,14.5267429 274.4548,14.5267429 C272.094229,14.5267429 270.572,16.0208 270.572,17.5964571 C270.572,18.9686 271.413257,19.9788857 273.374571,20.3417143 L277.177714,21.0693143 C282.582257,22.0796 285.384343,25.5922857 285.384343,29.6713143 C285.384343,34.1544571 281.661829,38.7192 274.895829,38.7192 L274.896314,38.7182286 Z M296.556257,38.1120571 L290.889429,38.1120571 L290.889429,9.52777143 L296.555771,9.52777143 L296.555771,38.1120571 L296.556257,38.1120571 Z M323.268114,38.1120571 L321.226171,32.3952 L310.258743,32.3952 L308.216314,38.1120571 L301.570286,38.1120571 L312.259886,9.52777143 L319.584457,9.52777143 L330.154571,38.1120571 L323.267143,38.1120571 L323.268114,38.1120571 Z" id="Shape" fill="#010101"></path>
            </g>
        </g>
    </g>
</svg>