<?xml version="1.0" encoding="UTF-8" standalone="no"?>
<svg width="488px" height="493px" viewBox="0 0 488 493" version="1.1" xmlns="http://www.w3.org/2000/svg" xmlns:xlink="http://www.w3.org/1999/xlink">
    <!-- Generator: Sketch 41.2 (35397) - http://www.bohemiancoding.com/sketch -->
    <title>(</title>
    <desc>Created with Sketch.</desc>
    <defs>
        <path d="M880,330 L880,260.192308 C828.653846,260.192308 806.730769,207.115385 806.730769,75 C806.730769,-57.1153846 828.653846,-110.192308 880,-110.192308 L880,-180 C769.230769,-180 730,-110.769231 730,75 C730,260.769231 769.230769,330 880,330 Z" id="path-1"></path>
        <path d="M330,330 L330,260.192308 C278.653846,260.192308 256.730769,207.115385 256.730769,75 C256.730769,-57.1153846 278.653846,-110.192308 330,-110.192308 L330,-180 C219.230769,-180 180,-110.769231 180,75 C180,260.769231 219.230769,330 330,330 Z" id="path-2"></path>
    </defs>
    <g id="Layout" stroke="none" stroke-width="1" fill="none" fill-rule="evenodd">
        <g id="home" transform="translate(-792.000000, 0.000000)">
            <g id="(" transform="translate(1048.624458, -515.132034) rotate(-135.000000) translate(-1048.624458, 515.132034) translate(-31.375542, -1065.132034)">
                <g transform="translate(805.000000, 75.000000) rotate(90.000000) translate(-805.000000, -75.000000) ">
                    <use fill="#3A3A3A" xlink:href="#path-1"></use>
                    <use fill-opacity="0.5" fill="#FFB0A8" xlink:href="#path-1"></use>
                </g>
                <g transform="translate(255.000000, 75.000000) rotate(90.000000) translate(-255.000000, -75.000000) ">
                    <use fill="#3A3A3A" xlink:href="#path-2"></use>
                    <use fill-opacity="0.2" fill="#FFB0A8" xlink:href="#path-2"></use>
                </g>
                <path d="M605,470 L605,400.192308 C553.653846,400.192308 531.730769,347.115385 531.730769,215 C531.730769,82.8846154 553.653846,29.8076923 605,29.8076923 L605,-40 C494.230769,-40 455,29.2307692 455,215 C455,400.769231 494.230769,470 605,470 Z" fill="#FFB0A8" transform="translate(530.000000, 215.000000) rotate(90.000000) translate(-530.000000, -215.000000) "></path>
            </g>
        </g>
    </g>
</svg>