<?xml version="1.0" encoding="UTF-8" standalone="no"?>
<svg width="416px" height="414px" viewBox="0 0 416 414" version="1.1" xmlns="http://www.w3.org/2000/svg" xmlns:xlink="http://www.w3.org/1999/xlink">
    <!-- Generator: Sketch 41.2 (35397) - http://www.bohemiancoding.com/sketch -->
    <title>&lt;</title>
    <desc>Created with Sketch.</desc>
    <defs>
        <polygon id="path-1" points="622.843188 287.156812 372.843188 425.974293 372.843188 496.025707 622.843188 634.843188 622.843188 542.940874 461.532134 460.678663 622.843188 378.416452"></polygon>
        <polygon id="path-2" points="298.843188 287.156812 48.8431877 425.974293 48.8431877 496.025707 298.843188 634.843188 298.843188 542.940874 137.532134 460.678663 298.843188 378.416452"></polygon>
    </defs>
    <g id="Layout" stroke="none" stroke-width="1" fill="none" fill-rule="evenodd">
        <g id="home" transform="translate(-864.000000, -610.000000)">
            <g id="&lt;" transform="translate(1191.678282, 630.793939) rotate(-45.000000) translate(-1191.678282, -630.793939) translate(638.678282, 245.793939)">
                <g transform="translate(497.843188, 461.000000) rotate(90.000000) translate(-497.843188, -461.000000) ">
                    <use fill="#3A3A3A" xlink:href="#path-1"></use>
                    <use fill-opacity="0.5" fill="#48CEFF" xlink:href="#path-1"></use>
                </g>
                <g transform="translate(173.843188, 461.000000) rotate(90.000000) translate(-173.843188, -461.000000) ">
                    <use fill="#3A3A3A" xlink:href="#path-2"></use>
                    <use fill-opacity="0.2" fill="#48CEFF" xlink:href="#path-2"></use>
                </g>
                <polygon fill="#48CEFF" transform="translate(335.843188, 627.000000) rotate(90.000000) translate(-335.843188, -627.000000) " points="460.843188 453.156812 210.843188 591.974293 210.843188 662.025707 460.843188 800.843188 460.843188 708.940874 299.532134 626.678663 460.843188 544.416452"></polygon>
            </g>
        </g>
    </g>
</svg>