<?xml version="1.0" encoding="UTF-8" standalone="no"?>
<svg width="576px" height="576px" viewBox="0 0 576 576" version="1.1" xmlns="http://www.w3.org/2000/svg" xmlns:xlink="http://www.w3.org/1999/xlink">
    <!-- Generator: Sketch 41.2 (35397) - http://www.bohemiancoding.com/sketch -->
    <title>{</title>
    <desc>Created with Sketch.</desc>
    <defs>
        <path d="M324.763314,63.3136095 L324.763314,134.911243 C361.449704,134.911243 385.710059,156.804734 385.710059,187.573964 L385.710059,222.485207 C385.710059,339.053254 428.905325,359.763314 524.763314,359.763314 L524.763314,286.982249 C473.87574,286.982249 464.408284,272.189349 464.408284,222.485207 L464.408284,157.988166 C464.408284,128.402367 444.881657,100 420.029586,100 C444.881657,100 464.408284,71.5976331 464.408284,42.0118343 L464.408284,-22.4852071 C464.408284,-72.1893491 473.87574,-86.9822485 524.763314,-86.9822485 L524.763314,-159.763314 C428.905325,-159.763314 385.710059,-139.053254 385.710059,-22.4852071 L385.710059,11.8343195 C385.710059,42.6035503 361.449704,63.3136095 324.763314,63.3136095 Z" id="path-1"></path>
        <path d="M1011.76331,63.3136095 L1011.76331,134.911243 C1048.4497,134.911243 1072.71006,156.804734 1072.71006,187.573964 L1072.71006,222.485207 C1072.71006,339.053254 1115.90533,359.763314 1211.76331,359.763314 L1211.76331,286.982249 C1160.87574,286.982249 1151.40828,272.189349 1151.40828,222.485207 L1151.40828,157.988166 C1151.40828,128.402367 1131.88166,100 1107.02959,100 C1131.88166,100 1151.40828,71.5976331 1151.40828,42.0118343 L1151.40828,-22.4852071 C1151.40828,-72.1893491 1160.87574,-86.9822485 1211.76331,-86.9822485 L1211.76331,-159.763314 C1115.90533,-159.763314 1072.71006,-139.053254 1072.71006,-22.4852071 L1072.71006,11.8343195 C1072.71006,42.6035503 1048.4497,63.3136095 1011.76331,63.3136095 Z" id="path-2"></path>
    </defs>
    <g id="Layout" stroke="none" stroke-width="1" fill="none" fill-rule="evenodd">
        <g id="home" transform="translate(0.000000, -448.000000)">
            <g id="{" transform="translate(-193.900974, 1100.051478) rotate(45.000000) translate(193.900974, -1100.051478) translate(-879.900974, 474.051478)">
                <g transform="translate(424.763314, 100.000000) rotate(90.000000) translate(-424.763314, -100.000000) ">
                    <use fill="#3A3A3A" xlink:href="#path-1"></use>
                    <use fill-opacity="0.2" fill="#0AF7C2" xlink:href="#path-1"></use>
                </g>
                <g transform="translate(1111.763314, 100.000000) rotate(90.000000) translate(-1111.763314, -100.000000) ">
                    <use fill="#3A3A3A" xlink:href="#path-2"></use>
                    <use fill-opacity="0.5" fill="#0AF7C2" xlink:href="#path-2"></use>
                </g>
                <path d="M667.763314,193.313609 L667.763314,264.911243 C704.449704,264.911243 728.710059,286.804734 728.710059,317.573964 L728.710059,352.485207 C728.710059,469.053254 771.905325,489.763314 867.763314,489.763314 L867.763314,416.982249 C816.87574,416.982249 807.408284,402.189349 807.408284,352.485207 L807.408284,287.988166 C807.408284,258.402367 787.881657,230 763.029586,230 C787.881657,230 807.408284,201.597633 807.408284,172.011834 L807.408284,107.514793 C807.408284,57.8106509 816.87574,43.0177515 867.763314,43.0177515 L867.763314,-29.7633136 C771.905325,-29.7633136 728.710059,-9.05325444 728.710059,107.514793 L728.710059,141.83432 C728.710059,172.60355 704.449704,193.313609 667.763314,193.313609 Z" fill="#0AF7C2" transform="translate(767.763314, 230.000000) rotate(90.000000) translate(-767.763314, -230.000000) "></path>
            </g>
        </g>
    </g>
</svg>